<!-- Generated by IcoMoon.io -->
<svg version="1.1" xmlns="http://www.w3.org/2000/svg" width="24" height="24" viewBox="0 0 24 24">
<title>linkedin</title>
<path d="M8.571 7.714h4.744v2.432h0.068c0.66-1.184 2.276-2.432 4.683-2.432 5.007 0 5.934 3.117 5.934 7.171v8.257h-4.945v-7.32c0-1.746-0.036-3.992-2.572-3.992-2.575 0-2.968 1.901-2.968 3.865v7.447h-4.943v-15.429z"></path>
<path d="M0 7.714h5.143v15.429h-5.143v-15.429z"></path>
<path d="M5.143 3.429c0 1.42-1.151 2.571-2.571 2.571s-2.571-1.151-2.571-2.571c0-1.42 1.151-2.571 2.571-2.571s2.571 1.151 2.571 2.571z"></path>
</svg>
