<!-- Generated by IcoMoon.io -->
<svg version="1.1" xmlns="http://www.w3.org/2000/svg" width="24" height="24" viewBox="0 0 24 24">
<title>pinterest</title>
<path d="M12 0.003c-6.626 0-11.997 5.371-11.997 11.997 0 5.085 3.164 9.423 7.627 11.17-0.103-0.947-0.2-2.407 0.043-3.44 0.216-0.936 1.406-5.961 1.406-5.961s-0.357-0.719-0.357-1.78c0-1.666 0.968-2.915 2.169-2.915 1.022 0 1.52 0.768 1.52 1.688 0 1.028-0.654 2.569-0.995 3.992-0.287 1.195 0.595 2.169 1.774 2.169 2.131 0 3.77-2.25 3.77-5.496 0-2.872-2.066-4.879-5.009-4.879-3.413 0-5.414 2.558-5.414 5.209 0 1.033 0.395 2.137 0.893 2.737 0.097 0.119 0.114 0.222 0.081 0.346-0.092 0.379-0.292 1.195-0.335 1.363-0.054 0.222-0.173 0.265-0.4 0.162-1.498-0.698-2.434-2.888-2.434-4.646 0-3.786 2.748-7.259 7.924-7.259 4.16 0 7.394 2.964 7.394 6.929 0 4.133-2.607 7.464-6.226 7.464-1.217 0-2.358-0.633-2.748-1.379 0 0-0.6 2.288-0.746 2.851-0.27 1.044-1.001 2.348-1.493 3.143 1.125 0.346 2.315 0.535 3.554 0.535 6.626 0 11.997-5.371 11.997-11.997 0-6.632-5.371-12.003-11.997-12.003z"></path>
</svg>
